<?xml version="1.0" encoding="UTF-8"?>
<svg width="20px" height="20px" viewBox="0 0 20 20" version="1.1" xmlns="http://www.w3.org/2000/svg" xmlns:xlink="http://www.w3.org/1999/xlink">
    <!-- Generator: Sketch 49.2 (51160) - http://www.bohemiancoding.com/sketch -->
    <title>instagram [#167]</title>
    <desc>Created with Sketch.</desc>
    <defs></defs>
    <g id="Page-2" stroke="none" stroke-width="1" fill="none" fill-rule="evenodd">
        <g id="Desktop-HD" transform="translate(-1119.000000, -1562.000000)" fill="#323539">
            <g id="Footer" transform="translate(-1.000000, 1362.000000)">
                <g id="Group-6" transform="translate(251.000000, 127.000000)">
                    <g id="Group-4" transform="translate(819.000000, 67.000000)">
                        <g id="Group-3">
                            <path d="M55.8696517,6.12272689 C54.2417691,6.19617738 52.8308049,6.59419965 51.6914861,7.72871202 C50.5481871,8.86917983 50.155147,10.2855833 50.0815141,11.8965313 C50.0357424,12.902009 49.7680771,20.4981797 50.5442069,22.4902762 C51.0675971,23.8342218 52.0984567,24.8674916 53.4546939,25.3925633 C54.0875382,25.6387217 54.809936,25.8054742 55.8696517,25.8541104 C64.7304675,26.2551103 68.0150888,26.036744 69.400182,22.4902762 C69.6459565,21.858999 69.815113,21.1373975 69.8618798,20.080306 C70.2668603,11.1967664 69.7962072,9.2711724 68.2519079,7.72871202 C67.0270158,6.50685312 65.5862004,5.6750759 55.8696517,6.12272689 M55.9512449,24.0674767 C54.9810826,24.0238034 54.4547073,23.8620138 54.1034588,23.7260312 C53.2198648,23.3826005 52.5561743,22.721546 52.2148762,21.8431178 C51.6238235,20.3294421 51.819846,13.1402268 51.872583,11.9769298 C51.924325,10.8374546 52.1551739,9.79624418 52.9591648,8.99225904 C53.9542031,7.99968479 55.2397925,7.51332341 63.9931441,7.90836796 C65.135448,7.95998182 66.1792432,8.19025904 66.9852242,8.99225904 C67.9802624,9.98483328 68.4738014,11.2801427 68.0718059,19.9999074 C68.0280243,20.9676673 67.865833,21.4927391 67.7295128,21.8431178 C66.8290031,24.1508529 64.7573335,24.4714544 55.9512449,24.0674767 M64.0896628,10.689561 C64.0896628,11.3466452 64.6239984,11.8806501 65.2837087,11.8806501 C65.9434191,11.8806501 66.4787497,11.3466452 66.4787497,10.689561 C66.4787497,10.0324768 65.9434191,9.4984719 65.2837087,9.4984719 C64.6239984,9.4984719 64.0896628,10.0324768 64.0896628,10.689561 M54.862673,15.9879223 C54.862673,18.8028629 57.150266,21.0847911 59.9721945,21.0847911 C62.794123,21.0847911 65.081716,18.8028629 65.081716,15.9879223 C65.081716,13.1729818 62.794123,10.8920461 59.9721945,10.8920461 C57.150266,10.8920461 54.862673,13.1729818 54.862673,15.9879223 M56.6557319,15.9879223 C56.6557319,14.1615857 58.140329,12.6796724 59.9721945,12.6796724 C61.8040599,12.6796724 63.288657,14.1615857 63.288657,15.9879223 C63.288657,17.8152515 61.8040599,19.2971649 59.9721945,19.2971649 C58.140329,19.2971649 56.6557319,17.8152515 56.6557319,15.9879223" id="instagram-[#167]"></path>
                        </g>
                    </g>
                </g>
            </g>
        </g>
    </g>
</svg>