<?xml version="1.0" encoding="UTF-8"?>
<svg width="20px" height="16px" viewBox="0 0 20 16" version="1.1" xmlns="http://www.w3.org/2000/svg" xmlns:xlink="http://www.w3.org/1999/xlink">
    <!-- Generator: Sketch 49.2 (51160) - http://www.bohemiancoding.com/sketch -->
    <title>twitter [#154]</title>
    <desc>Created with Sketch.</desc>
    <defs></defs>
    <g id="Page-2" stroke="none" stroke-width="1" fill="none" fill-rule="evenodd">
        <g id="Desktop-HD" transform="translate(-1164.000000, -1564.000000)" fill="#323539">
            <g id="Footer" transform="translate(-1.000000, 1362.000000)">
                <g id="Group-6" transform="translate(251.000000, 127.000000)">
                    <g id="Group-4" transform="translate(819.000000, 67.000000)">
                        <g id="Group-3">
                            <path d="M101.29,24 C108.837,24 112.965,17.8436531 112.965,12.5054614 C112.965,12.3302127 112.965,12.1559486 112.953,11.9826691 C113.756,11.4116342 114.449,10.7027633 115,9.89149989 C114.252,10.2183681 113.457,10.4329985 112.644,10.5275146 C113.5,10.0224441 114.141,9.2289025 114.448,8.29260218 C113.642,8.7632137 112.761,9.09500467 111.842,9.27320694 C110.288,7.64674202 107.689,7.56797859 106.036,9.09795829 C104.971,10.0844703 104.518,11.5553774 104.849,12.9583511 C101.55,12.794917 98.476,11.2609991 96.392,8.73761558 C95.303,10.5836336 95.86,12.9445675 97.663,14.1299572 C97.01,14.1112509 96.371,13.9379713 95.8,13.6248867 L95.8,13.6760829 C95.801,15.5988952 97.178,17.2548964 99.092,17.6359145 C98.488,17.7983641 97.854,17.8219931 97.24,17.7048325 C97.777,19.3509883 99.318,20.47829 101.073,20.5107799 C99.62,21.6351279 97.825,22.2455445 95.977,22.2435754 C95.651,22.2425909 95.325,22.2238846 95,22.1854874 C96.877,23.3708771 99.06,24 101.29,23.9970464" id="twitter-[#154]"></path>
                        </g>
                    </g>
                </g>
            </g>
        </g>
    </g>
</svg>